<svg data-v-5ef122a0="" viewBox="0 0 47 42" fill="none" xmlns="http://www.w3.org/2000/svg"><path fill-rule="evenodd" clip-rule="evenodd" d="M42.191 10.462c.018.455.027.914.027 1.373C42.218 25.845 32.516 42 14.782 42 9.333 42 4.267 40.24 0 37.236c.756.102 1.524.146 2.298.146 4.52 0 8.68-1.69 11.978-4.535-4.218-.087-7.778-3.151-9.01-7.364.592.123 1.192.191 1.814.191.88 0 1.733-.132 2.542-.371-4.409-.978-7.733-5.263-7.733-10.399v-.132a8.97 8.97 0 0 0 4.369 1.324c-2.591-1.9-4.294-5.145-4.294-8.825 0-1.94.48-3.762 1.307-5.326 4.756 6.411 11.862 10.633 19.876 11.073a11.601 11.601 0 0 1-.25-2.414C22.898 4.75 27.218 0 32.543 0c2.774 0 5.28 1.29 7.036 3.352A18.33 18.33 0 0 0 45.702.777c-.72 2.477-2.249 4.554-4.24 5.864A17.974 17.974 0 0 0 47 4.975a20.873 20.873 0 0 1-4.809 5.487Z"/></svg>