<svg data-v-5ef122a0="" viewBox="0 0 16 20" fill="none" xmlns="http://www.w3.org/2000/svg"><path d="M7.815 0c.94 0 1.702.74 1.702 1.647 0 .914-.761 1.653-1.702 1.653-.933 0-1.694-.74-1.695-1.653C6.12.74 6.881 0 7.815 0Zm7.356 5.326-5.05.62.002 4.912 2.447 7.935a.923.923 0 0 1-.691 1.126c-.51.124-1.032-.15-1.16-.65l-2.506-7.223H7.44l-2.306 7.373c-.193.48-.744.702-1.239.515-.49-.186-.789-.728-.595-1.209l2.117-7.787V5.946L.766 5.331a.827.827 0 0 1-.763-.91c.035-.467.47-.814.947-.777l5.652.473H9.08l6.019-.482a.854.854 0 0 1 .9.81.855.855 0 0 1-.83.881Z"/></svg>