<svg data-v-5ef122a0="" viewBox="0 0 42 42" fill="none" xmlns="http://www.w3.org/2000/svg"><path fill-rule="evenodd" clip-rule="evenodd" d="M21 3.785c5.607 0 6.272.021 8.488.123 5.69.259 8.349 2.959 8.608 8.608.101 2.214.12 2.879.12 8.486 0 5.608-.02 6.272-.12 8.486-.261 5.643-2.912 8.349-8.608 8.608-2.216.101-2.878.122-8.488.122-5.607 0-6.272-.02-8.486-.122-5.705-.261-8.349-2.973-8.608-8.61-.102-2.214-.123-2.877-.123-8.486 0-5.607.023-6.27.123-8.486.26-5.647 2.912-8.349 8.608-8.608 2.216-.1 2.879-.12 8.486-.12ZM21 0c-5.703 0-6.417.025-8.657.126C4.716.476.478 4.707.128 12.341.024 14.583 0 15.297 0 21c0 5.703.025 6.419.126 8.659.35 7.627 4.581 11.865 12.215 12.215 2.242.101 2.956.126 8.659.126 5.703 0 6.419-.025 8.659-.126 7.62-.35 11.869-4.582 12.213-12.215.103-2.24.128-2.956.128-8.659 0-5.703-.025-6.417-.126-8.657C41.531 4.723 37.294.478 29.661.128 27.419.024 26.703 0 21 0Zm0 10.216c-5.955 0-10.784 4.829-10.784 10.784 0 5.955 4.829 10.785 10.784 10.785 5.955 0 10.784-4.828 10.784-10.785 0-5.955-4.829-10.784-10.784-10.784ZM21 28a7 7 0 1 1 0-14 7 7 0 0 1 0 14ZM32.21 7.271a2.521 2.521 0 1 0 0 5.042 2.521 2.521 0 0 0 0-5.042Z"/></svg>