<svg data-v-5ef122a0="" viewBox="0 0 149 106" fill="none" xmlns="http://www.w3.org/2000/svg"><path fill-rule="evenodd" clip-rule="evenodd" d="M132.715 3.158c6.409 1.725 11.459 6.807 13.172 13.258C149 28.111 149 52.512 149 52.512s0 24.4-3.113 36.097c-1.713 6.452-6.763 11.534-13.172 13.259-11.62 3.134-58.215 3.134-58.215 3.134s-46.593 0-58.212-3.134c-6.41-1.725-11.46-6.807-13.173-13.259C0 76.913 0 52.512 0 52.512S0 28.11 3.115 16.416C4.829 9.966 9.878 4.883 16.288 3.159 27.908.024 74.5.024 74.5.024s46.595 0 58.215 3.134Zm-34.51 49.355L59.263 74.668v-44.31l38.942 22.155Z"/></svg>