<svg data-v-5ef122a0="" viewBox="0 0 91 58" fill="#000000" xmlns="http://www.w3.org/2000/svg"><path d="m10.957 22.298 1.308 24.61c.18 2.033-.19 4.077-1.073 5.924.683-.236 7.383-2.567 8.985-3.163-1.174-1.054-1.404-2.572-1.467-3.782l-.592-11.074c2.05-.246 5.233-1.579 7.148-2.865 5.449-3.683 6.906-7.792 6.531-12.194-.447-5.2-4.367-9.622-10.528-9.29-2.14.167-4.236.693-6.195 1.555C7.402 15.215.274 23.168 0 33.258c-.154 5.915 2.448 12.033 6.493 15.13a8.167 8.167 0 0 0 2.55 1.418C3.438 45.23 2.673 38.09 3.116 34.066c1.077-9.886 8.427-15.896 13.376-17.409 4.627-1.418 8.826.043 9.095 5.088.264 4.931-2.621 8.094-5.416 9.38a8.531 8.531 0 0 1-2.193.686l-.731-13.712c-2.242.814-5.44 3.102-6.291 4.199ZM60.232 27.636c.082 4.255 2.997 7.168 7.085 6.024 2.718-.762 5.29-3.447 6.253-5.485a5.99 5.99 0 0 1-.688 3.078c.481-.17 4.723-1.693 5.387-1.924-.64-.785-.794-1.972-.856-3.14 0-.392-.125-2.198-.226-4.208 0-2.07.692-3.243 1.318-3.64a1.232 1.232 0 0 1 1.123-.2c.19.06.362.163.501.302.14.14.242.31.3.498a1.61 1.61 0 0 1-.065.949 1.64 1.64 0 0 1-.59.753c2.01.534 4.103-.865 3.906-3.433a2.896 2.896 0 0 0-.335-1.299 2.948 2.948 0 0 0-.888-1.017 3.037 3.037 0 0 0-2.616-.445c-.7.239-1.326.65-1.82 1.192-.493.542-.839 1.2-1.003 1.91-.057-1.12-.091-1.891-.091-1.891l-4.896 1.758c.305.277.545.615.706.99.16.377.236.783.222 1.19l.274 5.13c-.644 2.478-2.972 5.239-4.95 5.674-1.89.42-3.16-.34-3.765-1.764a6.959 6.959 0 0 0 3.405-.402 5.851 5.851 0 0 0 2.745-2.38 5.702 5.702 0 0 0 .78-3.516c-.264-2.737-2.664-4.042-5.415-3.177-3.9 1.22-5.854 4.728-5.772 8.463l-.029.01Zm5.662-6.028c1.303-.256 1.692.978 1.702 1.801a3.228 3.228 0 0 1-.415 1.754 3.3 3.3 0 0 1-1.297 1.272 3.533 3.533 0 0 1-1.818.35c-.38-3.262.813-4.984 1.828-5.177Z"></path> <path d="M42.393 41.957c2.79-1.806 4.16-5.536 3.968-9.148-.23-4.298-3.016-5.386-4.973-4.729-1.236.412-2.405.974-3.19 2.421l-.062-1.187-5.016 1.807c.48.35.86 1.05.919 2.174 0 .421.149 2.913.288 5.674-.688 2.364-3.112 4.728-5.016 5.145-1.905.416-3.165-.336-3.771-1.764a6.959 6.959 0 0 0 3.405-.402 5.86 5.86 0 0 0 2.745-2.38c.635-1.06.91-2.292.785-3.516-.25-2.728-2.655-4.033-5.415-3.168-3.906 1.22-5.859 4.728-5.772 8.463.077 4.256 2.992 7.164 7.085 6.02 2.664-.752 5.338-2.984 6.137-4.814l.293 5.735c.044.785-.091 2.837-.596 3.82l5.714-2.051a6.215 6.215 0 0 1-.861-3.145l-.197-3.673a10.443 10.443 0 0 0 3.516-1.282h.014Zm-15.459-6.643c1.309-.25 1.694.984 1.703 1.802a3.264 3.264 0 0 1-.415 1.754c-.3.536-.746.98-1.288 1.281a3.519 3.519 0 0 1-1.813.345c-.384-3.262.808-4.983 1.823-5.2l-.01.018Zm13.131-3.47c1.303-.213 2.044.875 2.13 2.45.107 2.028-.384 4.16-1.635 5.441a4.233 4.233 0 0 1-1.803.998l-.419-7.778c.558-.553 1.04-1.002 1.727-1.111M55.586 37.258c2.77-1.806 4.194-5.253 3.973-8.984-.274-4.53-2.886-5.546-4.983-4.865-1.53.473-2.309 1.532-3.078 2.695l-.082-1.499-5.012 1.811c.481.355.837 1.05.9 2.18l.793 15.054a8.75 8.75 0 0 1-.582 3.783s5.026-1.797 5.69-2.029a6.203 6.203 0 0 1-.86-3.144l-.198-3.716a9.88 9.88 0 0 0 3.43-1.277l.01-.01Zm-2.179-10.08c1.304-.213 1.924 1.049 2.01 2.619.111 2.028-.297 3.995-1.635 5.31a4.323 4.323 0 0 1-1.77.945l-.404-7.778a3.53 3.53 0 0 1 1.809-1.106M52.248 11.054l.409 7.655a9.24 9.24 0 0 1-.452 3.995c.48-.17 4.718-1.692 5.382-1.924-.64-.785-.799-1.972-.861-3.144 0-.388-.11-2.194-.207-4.203-.12-2.246.625-3.14 1.304-3.641a1.216 1.216 0 0 1 1.126-.21c.191.06.364.165.503.306.14.142.24.315.294.504.075.316.052.647-.065.95a1.635 1.635 0 0 1-.593.753c2.015.534 4.102-.866 3.905-3.433a2.881 2.881 0 0 0-.331-1.305 2.935 2.935 0 0 0-.89-1.02 3.022 3.022 0 0 0-2.626-.43 4.36 4.36 0 0 0-1.828 1.175 4.255 4.255 0 0 0-1.015 1.901c-.053-1.12-.092-1.89-.092-1.89L51.32 8.874c.305.276.546.614.706.99.16.376.236.782.222 1.19ZM32.88 11.239c.076 1.286.692 12.974.72 13.499.068 1.144.28 2.765-.769 4.728.962-.326 7.59-2.615 9.312-3.31 4.81-1.924 8.585-6.544 8.234-13.532-.356-7.314-5.459-9.565-11.091-7.73-1.505.472-6.806 2.43-7.994 2.836.87.568 1.472 1.537 1.587 3.532v-.023Zm8.705-3.315c2.405.554 3.295 3.41 3.4 6.204.12 3.177-.961 7.012-3.462 8.832a9.5 9.5 0 0 1-2.564 1.23c-.029-.573-.77-14.185-.832-15.42.895-.543 2.27-1.148 3.482-.87"></path> <path d="M89.74 14.279c-2.241-5.603-6.47-10.01-13.467-12.714A25.36 25.36 0 0 0 69.972 0c7.825 2.52 13.717 7.092 16.233 13.305 5.771 14.383-8.75 32.293-32.413 40.01-11.9 3.872-23.842 4.44-33.514 2.217 1.02.704 3.463 1.258 5.29 1.608 9.341 1.777 20.557.79 31.745-2.837 23.659-7.717 38.174-25.627 32.412-40.005"></path> <path d="M55.644 42.019c.293-.09.58-.196.86-.317a.624.624 0 0 0 .285-.217c-.006.278.009.556.043.832a.43.43 0 0 0-.284 0c-.176.036-.35.085-.52.146l-.36.133c0 .298.034.685.058.912.024.227.072.289.163.28.127-.018.251-.05.37-.095.22-.075.43-.174.626-.298a.953.953 0 0 0 .313-.322c-.033.314-.046.63-.039.946-.183.043-.654.199-1.222.392-.428.147-.87.303-1.091.407.057-.21.075-.427.053-.643a31.595 31.595 0 0 0-.217-3.215.666.666 0 0 0-.135-.303c.207-.066.481-.137 1.174-.369.48-.165.866-.316 1.202-.472-.019.269-.019.539 0 .808a.384.384 0 0 0-.327-.047c-.18.038-.357.09-.529.156l-.48.18.057 1.106ZM57.51 40.917c.22-.367.572-.64.986-.766.212-.068.432-.112.654-.132-.046.226-.07.455-.072.686a.978.978 0 0 0-.568 0 .481.481 0 0 0-.276.191.467.467 0 0 0-.08.324.27.27 0 0 0 .11.148.278.278 0 0 0 .18.046c.264 0 .84-.152.99.506.067.36-.002.733-.196 1.046a1.52 1.52 0 0 1-.853.656c-.307.11-.635.156-.962.132.046-.238.08-.477.101-.719a.937.937 0 0 0 .727.038c.336-.113.48-.368.433-.577-.048-.208-.198-.212-.558-.198a.644.644 0 0 1-.468-.09.624.624 0 0 1-.273-.383 1.355 1.355 0 0 1 .125-.908ZM60.79 41.64c.029.474.24.474.366.412a.776.776 0 0 0 .279-.175v.653c-.143.08-.293.148-.448.203-.687.232-.962.128-.962-.402 0-.255-.043-.643-.086-1.74l-.375.132c0-.203 0-.307-.034-.534l.375-.123a6.36 6.36 0 0 0-.077-.945c.307-.172.6-.367.876-.582-.022.41-.022.82 0 1.23l.48-.17v.543c-.197.061-.24.08-.48.156.038.326.067.908.086 1.343ZM62.344 41.66a.69.69 0 0 1-.065.421.705.705 0 0 1-.3.307.348.348 0 0 1-.425-.115.333.333 0 0 1-.057-.145.68.68 0 0 1 .065-.424.695.695 0 0 1 .306-.304.358.358 0 0 1 .416.12c.03.041.05.09.06.14ZM62.296 39.012c-.024-.293-.03-.364-.058-.634a8.91 8.91 0 0 0 .774-.435c.268-.163.524-.344.765-.543v.132c.011 1.332.091 2.662.24 3.986.01.04.024.08.044.118a6.882 6.882 0 0 0-.558.156c-.183.061-.327.132-.481.203.056-.185.084-.378.082-.572a23.908 23.908 0 0 0-.125-2.912c-.313.212-.375.26-.683.5ZM66.408 36.686a.742.742 0 0 1 .52.572 1.15 1.15 0 0 1-.078.703 1.174 1.174 0 0 1-.476.53c-.067.038-.13.067-.202.1.081-.02.163-.036.246-.047.384-.066.63.156.716.539a1.642 1.642 0 0 1-.423 1.456 2.475 2.475 0 0 1-.91.548c-.571.199-1.24.213-1.404-.496a1.507 1.507 0 0 1 .4-1.38.921.921 0 0 1 .423-.251.636.636 0 0 1-.702-.235.609.609 0 0 1-.101-.238 1.396 1.396 0 0 1 .452-1.286c.224-.184.482-.324.76-.411.242-.114.514-.15.779-.104Zm-1.169 1.612a.31.31 0 0 0 .174.249.322.322 0 0 0 .307-.013c.53-.18.433-.87.404-1.012-.058-.25-.24-.279-.48-.198a.818.818 0 0 0-.385.414.8.8 0 0 0-.02.56Zm.043 1.929a.354.354 0 0 0 .175.278.37.37 0 0 0 .33.024c.602-.203.525-.945.481-1.106-.043-.16-.168-.364-.51-.246a.897.897 0 0 0-.43.435.875.875 0 0 0-.046.605v.01ZM69.419 35.65c.131.04.249.115.34.216.091.1.153.224.18.356.049.235.024.48-.072.7a1.179 1.179 0 0 1-.67.634c.087 0 .169-.043.246-.052a.617.617 0 0 1 .482.113.598.598 0 0 1 .235.43 1.65 1.65 0 0 1-.419 1.457 2.45 2.45 0 0 1-.914.548c-.567.194-1.24.213-1.4-.473a1.505 1.505 0 0 1 .395-1.38.965.965 0 0 1 .428-.251.63.63 0 0 1-.703-.233.605.605 0 0 1-.1-.24 1.363 1.363 0 0 1 .452-1.286c.219-.188.476-.329.755-.411.236-.118.503-.163.765-.128Zm-1.174 1.603a.31.31 0 0 0 .174.249.322.322 0 0 0 .307-.013c.53-.18.438-.87.404-1.011-.057-.251-.235-.28-.48-.199a.823.823 0 0 0-.383.415.805.805 0 0 0-.022.559Zm.048 1.929a.357.357 0 0 0 .167.265.37.37 0 0 0 .314.038c.602-.208.52-.946.481-1.111-.038-.166-.173-.36-.514-.242a.885.885 0 0 0-.417.446.866.866 0 0 0-.026.604h-.005ZM72.545 38.298a1.849 1.849 0 0 1-.484.554 1.885 1.885 0 0 1-.665.325c-.172.06-.35.105-.53.133-.168.026-.34.026-.51 0 .06-.242.094-.49.102-.738a.586.586 0 0 0 .245.118c.163.017.328-.004.481-.061a.968.968 0 0 0 .693-1.12c-.082-.355-.395-.445-.775-.313a2.165 2.165 0 0 0-.659.412v-.662c0-.591-.032-1.181-.096-1.769a.933.933 0 0 0 .327-.047c.183-.047.481-.147 1.03-.336.735-.255.88-.35.962-.44.025.293-.004.588-.087.87-.082.166-.231.242-.53.346-.543.189-.793.255-1.105.34 0 .355 0 .473.038.776.155-.132.332-.234.524-.303a1.078 1.078 0 0 1 .856 0 .851.851 0 0 1 .352.553c.103.46.044.94-.169 1.362Z"></path></svg>